<mxfile host="app.diagrams.net" modified="2021-03-18T07:49:31.973Z" agent="5.0 (Windows NT 10.0; Win64; x64) AppleWebKit/537.36 (KHTML, like Gecko) Chrome/89.0.4389.82 Safari/537.36" etag="GWhX-SLTgwklFalZc3tm" version="14.4.8" type="github">
  <diagram id="1KhmYGELhyACEd7Jnpwi" name="페이지-1">
    <mxGraphModel dx="2031" dy="1134" grid="1" gridSize="10" guides="1" tooltips="1" connect="1" arrows="1" fold="1" page="1" pageScale="1" pageWidth="827" pageHeight="1169" math="0" shadow="0">
      <root>
        <mxCell id="0" />
        <mxCell id="1" parent="0" />
        <mxCell id="C4p78MOqMb6mm8a9u9Of-28" value="" style="edgeStyle=orthogonalEdgeStyle;rounded=0;orthogonalLoop=1;jettySize=auto;html=1;fontSize=15;" edge="1" parent="1" source="8Shs_mjXmGKe_kZDb0H--7" target="8Shs_mjXmGKe_kZDb0H--15">
          <mxGeometry relative="1" as="geometry" />
        </mxCell>
        <mxCell id="8Shs_mjXmGKe_kZDb0H--7" value="&lt;span style=&quot;text-align: left; font-size: 13px;&quot;&gt;+modify(Person mPerson): void&lt;/span&gt;" style="strokeWidth=2;html=1;shape=mxgraph.flowchart.terminator;whiteSpace=wrap;fontSize=13;" parent="1" vertex="1">
          <mxGeometry x="373.76" y="50" width="192.5" height="70" as="geometry" />
        </mxCell>
        <mxCell id="C4p78MOqMb6mm8a9u9Of-6" value="" style="edgeStyle=orthogonalEdgeStyle;rounded=0;orthogonalLoop=1;jettySize=auto;html=1;fontSize=13;" edge="1" parent="1" source="8Shs_mjXmGKe_kZDb0H--13" target="C4p78MOqMb6mm8a9u9Of-2">
          <mxGeometry relative="1" as="geometry" />
        </mxCell>
        <mxCell id="8Shs_mjXmGKe_kZDb0H--13" value="i&amp;lt; v.size();" style="strokeWidth=2;html=1;shape=mxgraph.flowchart.decision;whiteSpace=wrap;fontSize=13;" parent="1" vertex="1">
          <mxGeometry x="367" y="260" width="206" height="130" as="geometry" />
        </mxCell>
        <mxCell id="8Shs_mjXmGKe_kZDb0H--14" style="edgeStyle=orthogonalEdgeStyle;rounded=0;orthogonalLoop=1;jettySize=auto;html=1;exitX=0.5;exitY=1;exitDx=0;exitDy=0;entryX=0.5;entryY=0;entryDx=0;entryDy=0;entryPerimeter=0;fontSize=13;" parent="1" source="8Shs_mjXmGKe_kZDb0H--15" target="8Shs_mjXmGKe_kZDb0H--13" edge="1">
          <mxGeometry relative="1" as="geometry" />
        </mxCell>
        <mxCell id="8Shs_mjXmGKe_kZDb0H--15" value="&lt;span style=&quot;font-size: 13px&quot;&gt;int i = 0;&lt;/span&gt;&lt;br style=&quot;font-size: 13px&quot;&gt;&lt;span style=&quot;font-size: 13px&quot;&gt;name=m&lt;/span&gt;&lt;span style=&quot;font-size: 13px ; text-align: left&quot;&gt;Person&lt;/span&gt;&lt;span style=&quot;font-size: 13px&quot;&gt;.getName();&lt;/span&gt;&lt;br style=&quot;font-size: 13px&quot;&gt;&lt;span style=&quot;font-size: 13px&quot;&gt;phone=m&lt;/span&gt;&lt;span style=&quot;font-size: 13px ; text-align: left&quot;&gt;Person&lt;/span&gt;&lt;span style=&quot;font-size: 13px&quot;&gt;.getPhone();&lt;/span&gt;" style="rounded=1;whiteSpace=wrap;html=1;absoluteArcSize=1;arcSize=0;strokeWidth=2;fontSize=13;" parent="1" vertex="1">
          <mxGeometry x="370" y="150" width="200" height="70" as="geometry" />
        </mxCell>
        <mxCell id="8Shs_mjXmGKe_kZDb0H--16" style="edgeStyle=orthogonalEdgeStyle;rounded=0;orthogonalLoop=1;jettySize=auto;html=1;entryX=0;entryY=0.5;entryDx=0;entryDy=0;entryPerimeter=0;fontSize=13;" parent="1" source="8Shs_mjXmGKe_kZDb0H--17" target="8Shs_mjXmGKe_kZDb0H--13" edge="1">
          <mxGeometry relative="1" as="geometry">
            <Array as="points">
              <mxPoint x="205" y="325" />
            </Array>
            <mxPoint x="367" y="345" as="targetPoint" />
          </mxGeometry>
        </mxCell>
        <mxCell id="8Shs_mjXmGKe_kZDb0H--17" value="i++" style="rounded=1;whiteSpace=wrap;html=1;absoluteArcSize=1;arcSize=0;strokeWidth=2;fontSize=13;" parent="1" vertex="1">
          <mxGeometry x="160" y="595" width="90" height="40" as="geometry" />
        </mxCell>
        <mxCell id="8Shs_mjXmGKe_kZDb0H--20" value="변경-&amp;gt; 확인버튼" style="rounded=1;whiteSpace=wrap;html=1;absoluteArcSize=1;arcSize=0;strokeWidth=2;" parent="1" vertex="1">
          <mxGeometry x="60" y="20" width="170" height="90" as="geometry" />
        </mxCell>
        <mxCell id="C4p78MOqMb6mm8a9u9Of-7" value="" style="edgeStyle=orthogonalEdgeStyle;rounded=0;orthogonalLoop=1;jettySize=auto;html=1;fontSize=13;" edge="1" parent="1" source="C4p78MOqMb6mm8a9u9Of-2" target="C4p78MOqMb6mm8a9u9Of-3">
          <mxGeometry relative="1" as="geometry" />
        </mxCell>
        <mxCell id="C4p78MOqMb6mm8a9u9Of-2" value="Person savedPerson= v.get(i);" style="rounded=1;whiteSpace=wrap;html=1;absoluteArcSize=1;arcSize=0;strokeWidth=2;fontSize=13;" vertex="1" parent="1">
          <mxGeometry x="364.87" y="430" width="210.25" height="60" as="geometry" />
        </mxCell>
        <mxCell id="C4p78MOqMb6mm8a9u9Of-8" value="Y" style="edgeStyle=orthogonalEdgeStyle;rounded=0;orthogonalLoop=1;jettySize=auto;html=1;fontSize=15;" edge="1" parent="1" source="C4p78MOqMb6mm8a9u9Of-3" target="C4p78MOqMb6mm8a9u9Of-4">
          <mxGeometry relative="1" as="geometry" />
        </mxCell>
        <mxCell id="C4p78MOqMb6mm8a9u9Of-9" value="N" style="edgeStyle=orthogonalEdgeStyle;rounded=0;orthogonalLoop=1;jettySize=auto;html=1;fontSize=15;" edge="1" parent="1" source="C4p78MOqMb6mm8a9u9Of-3" target="8Shs_mjXmGKe_kZDb0H--17">
          <mxGeometry relative="1" as="geometry" />
        </mxCell>
        <mxCell id="C4p78MOqMb6mm8a9u9Of-3" value="(savedPerson.getPhone().equals(&lt;span style=&quot;text-align: left; font-size: 13px;&quot;&gt;phone&lt;/span&gt;)&lt;br style=&quot;font-size: 13px;&quot;&gt;||&lt;br style=&quot;font-size: 13px;&quot;&gt;savedPerson.getName().equals(name))" style="strokeWidth=2;html=1;shape=mxgraph.flowchart.decision;whiteSpace=wrap;fontSize=13;" vertex="1" parent="1">
          <mxGeometry x="307.5" y="530" width="324.99" height="170" as="geometry" />
        </mxCell>
        <mxCell id="C4p78MOqMb6mm8a9u9Of-14" value="" style="edgeStyle=orthogonalEdgeStyle;rounded=0;orthogonalLoop=1;jettySize=auto;html=1;fontSize=13;" edge="1" parent="1" source="C4p78MOqMb6mm8a9u9Of-4" target="C4p78MOqMb6mm8a9u9Of-5">
          <mxGeometry relative="1" as="geometry" />
        </mxCell>
        <mxCell id="C4p78MOqMb6mm8a9u9Of-4" value="output(savedPerson);" style="rounded=1;whiteSpace=wrap;html=1;absoluteArcSize=1;arcSize=0;strokeWidth=2;fontSize=13;" vertex="1" parent="1">
          <mxGeometry x="354.88" y="740" width="230.25" height="60" as="geometry" />
        </mxCell>
        <mxCell id="C4p78MOqMb6mm8a9u9Of-24" value="" style="edgeStyle=orthogonalEdgeStyle;rounded=0;orthogonalLoop=1;jettySize=auto;html=1;fontSize=13;" edge="1" parent="1" source="C4p78MOqMb6mm8a9u9Of-5" target="C4p78MOqMb6mm8a9u9Of-22">
          <mxGeometry relative="1" as="geometry" />
        </mxCell>
        <mxCell id="C4p78MOqMb6mm8a9u9Of-5" value="&lt;span style=&quot;font-family: helvetica; font-size: 13px;&quot;&gt;textarea.setText(&quot;덮어씌울 정보를 입력 후 확인을 누르세요&quot;);&lt;/span&gt;&lt;span style=&quot;font-family: helvetica; font-size: 13px;&quot;&gt;&amp;nbsp;&lt;/span&gt;" style="strokeWidth=2;html=1;shape=mxgraph.flowchart.document2;whiteSpace=wrap;size=0.25;fontSize=13;" vertex="1" parent="1">
          <mxGeometry x="350" y="850" width="240" height="80" as="geometry" />
        </mxCell>
        <mxCell id="C4p78MOqMb6mm8a9u9Of-17" value="" style="edgeStyle=orthogonalEdgeStyle;rounded=0;orthogonalLoop=1;jettySize=auto;html=1;fontSize=13;" edge="1" parent="1" source="C4p78MOqMb6mm8a9u9Of-10" target="C4p78MOqMb6mm8a9u9Of-11">
          <mxGeometry relative="1" as="geometry" />
        </mxCell>
        <mxCell id="C4p78MOqMb6mm8a9u9Of-10" value="savedPerson =&amp;nbsp;&lt;span style=&quot;font-size: 13px;&quot;&gt;input(nameBox.getText(), phoneBox.getText());&lt;/span&gt;" style="rounded=1;whiteSpace=wrap;html=1;absoluteArcSize=1;arcSize=0;strokeWidth=2;fontSize=13;" vertex="1" parent="1">
          <mxGeometry x="325.01" y="1280" width="289.99" height="60" as="geometry" />
        </mxCell>
        <mxCell id="C4p78MOqMb6mm8a9u9Of-19" value="" style="edgeStyle=orthogonalEdgeStyle;rounded=0;orthogonalLoop=1;jettySize=auto;html=1;fontSize=13;" edge="1" parent="1" source="C4p78MOqMb6mm8a9u9Of-11" target="C4p78MOqMb6mm8a9u9Of-13">
          <mxGeometry relative="1" as="geometry" />
        </mxCell>
        <mxCell id="C4p78MOqMb6mm8a9u9Of-11" value="&lt;span style=&quot;font-size: 13px;&quot;&gt;v.set(i,savedPerson);&lt;/span&gt;" style="rounded=1;whiteSpace=wrap;html=1;absoluteArcSize=1;arcSize=0;strokeWidth=2;fontSize=13;" vertex="1" parent="1">
          <mxGeometry x="370" y="1390" width="200" height="60" as="geometry" />
        </mxCell>
        <mxCell id="C4p78MOqMb6mm8a9u9Of-16" value="Y" style="edgeStyle=orthogonalEdgeStyle;rounded=0;orthogonalLoop=1;jettySize=auto;html=1;fontSize=15;" edge="1" parent="1" source="C4p78MOqMb6mm8a9u9Of-12" target="C4p78MOqMb6mm8a9u9Of-10">
          <mxGeometry relative="1" as="geometry" />
        </mxCell>
        <mxCell id="C4p78MOqMb6mm8a9u9Of-23" value="N" style="edgeStyle=orthogonalEdgeStyle;rounded=0;orthogonalLoop=1;jettySize=auto;html=1;fontSize=15;" edge="1" parent="1" source="C4p78MOqMb6mm8a9u9Of-12">
          <mxGeometry x="-0.8881" relative="1" as="geometry">
            <mxPoint x="460" y="950" as="targetPoint" />
            <Array as="points">
              <mxPoint x="250" y="1165" />
              <mxPoint x="250" y="950" />
            </Array>
            <mxPoint as="offset" />
          </mxGeometry>
        </mxCell>
        <mxCell id="C4p78MOqMb6mm8a9u9Of-12" value="[ 확인 ] 버튼을 눌른 경우" style="strokeWidth=2;html=1;shape=mxgraph.flowchart.decision;whiteSpace=wrap;fontSize=13;" vertex="1" parent="1">
          <mxGeometry x="338.75" y="1100" width="262.48" height="130" as="geometry" />
        </mxCell>
        <mxCell id="C4p78MOqMb6mm8a9u9Of-13" value="&lt;div style=&quot;text-align: left; font-size: 13px;&quot;&gt;return;&lt;/div&gt;" style="strokeWidth=2;html=1;shape=mxgraph.flowchart.terminator;whiteSpace=wrap;fontSize=13;" vertex="1" parent="1">
          <mxGeometry x="383.76" y="1490" width="172.5" height="60" as="geometry" />
        </mxCell>
        <mxCell id="C4p78MOqMb6mm8a9u9Of-25" value="" style="edgeStyle=orthogonalEdgeStyle;rounded=0;orthogonalLoop=1;jettySize=auto;html=1;fontSize=13;" edge="1" parent="1" source="C4p78MOqMb6mm8a9u9Of-22" target="C4p78MOqMb6mm8a9u9Of-12">
          <mxGeometry relative="1" as="geometry" />
        </mxCell>
        <mxCell id="C4p78MOqMb6mm8a9u9Of-22" value="&lt;span style=&quot;font-size: 12px&quot;&gt;nameBox 에 이름 입력&lt;/span&gt;&lt;br style=&quot;font-size: 12px&quot;&gt;&lt;span style=&quot;font-size: 12px&quot;&gt;phoneBox 에 번호 입력&lt;/span&gt;" style="html=1;strokeWidth=2;shape=manualInput;whiteSpace=wrap;rounded=1;size=26;arcSize=0;fontSize=13;" vertex="1" parent="1">
          <mxGeometry x="350.01" y="980" width="239.99" height="80" as="geometry" />
        </mxCell>
      </root>
    </mxGraphModel>
  </diagram>
</mxfile>
